<?xml version="1.0" encoding="utf-8"?>
<svg viewBox="4 42 500 168" xmlns="http://www.w3.org/2000/svg">
  <path d="M 332.146 206.403 C 331.626 206.403 330.989 206.313 330.236 206.133 C 329.483 205.946 328.943 205.736 328.616 205.503 L 329.966 202.173 C 330.199 202.52 330.499 202.793 330.866 202.993 C 331.233 203.193 331.603 203.293 331.976 203.293 C 332.443 203.293 332.839 203.236 333.166 203.123 C 333.493 203.003 333.769 202.736 333.996 202.323 C 334.223 201.91 334.336 201.29 334.336 200.463 L 334.336 186.463 L 337.976 186.463 L 337.976 200.133 C 337.976 202.046 337.523 203.57 336.616 204.703 C 335.709 205.836 334.219 206.403 332.146 206.403 ZM 347.636 206.263 C 346.269 206.263 345.106 205.973 344.146 205.393 C 343.186 204.813 342.452 203.98 341.946 202.893 C 341.446 201.806 341.196 200.503 341.196 198.983 C 341.196 197.463 341.452 196.156 341.966 195.063 C 342.486 193.97 343.239 193.136 344.226 192.563 C 345.206 191.99 346.379 191.703 347.746 191.703 C 349.099 191.703 350.249 192 351.196 192.593 C 352.142 193.186 352.859 194.03 353.346 195.123 C 353.832 196.21 354.076 197.496 354.076 198.983 C 354.076 200.456 353.822 201.743 353.316 202.843 C 352.809 203.936 352.076 204.78 351.116 205.373 C 350.149 205.966 348.989 206.263 347.636 206.263 Z M 347.686 203.463 C 348.552 203.463 349.212 203.086 349.666 202.333 C 350.119 201.573 350.346 200.456 350.346 198.983 C 350.346 197.496 350.119 196.373 349.666 195.613 C 349.212 194.853 348.552 194.473 347.686 194.473 C 346.772 194.473 346.082 194.833 345.616 195.553 C 345.149 196.273 344.916 197.416 344.916 198.983 C 344.916 200.55 345.149 201.69 345.616 202.403 C 346.082 203.11 346.772 203.463 347.686 203.463 ZM 364.267 206.373 C 363.62 206.373 363.037 206.23 362.517 205.943 C 362.004 205.663 361.577 205.283 361.237 204.803 C 360.904 204.323 360.66 203.793 360.507 203.213 L 360.507 205.983 L 357.427 205.983 L 357.427 184.703 L 360.787 184.703 L 360.787 192.043 L 360.507 194.443 C 360.647 193.85 360.937 193.343 361.377 192.923 C 361.81 192.503 362.31 192.19 362.877 191.983 C 363.444 191.776 364.007 191.673 364.567 191.673 C 366.307 191.673 367.62 192.286 368.507 193.513 C 369.394 194.74 369.837 196.553 369.837 198.953 C 369.837 200.566 369.59 201.933 369.097 203.053 C 368.61 204.166 367.947 205 367.107 205.553 C 366.267 206.1 365.32 206.373 364.267 206.373 Z M 363.447 203.603 C 363.934 203.603 364.384 203.443 364.797 203.123 C 365.204 202.81 365.534 202.303 365.787 201.603 C 366.04 200.91 366.167 200.026 366.167 198.953 C 366.167 197.953 366.047 197.123 365.807 196.463 C 365.574 195.803 365.254 195.316 364.847 195.003 C 364.447 194.69 364 194.533 363.507 194.533 C 362.947 194.533 362.467 194.733 362.067 195.133 C 361.667 195.533 361.364 196.086 361.157 196.793 C 360.95 197.5 360.847 198.296 360.847 199.183 C 360.847 200.056 360.954 200.826 361.167 201.493 C 361.374 202.16 361.674 202.68 362.067 203.053 C 362.46 203.42 362.92 203.603 363.447 203.603 ZM 380.059 206.373 C 379.412 206.373 378.829 206.23 378.309 205.943 C 377.795 205.663 377.369 205.283 377.029 204.803 C 376.695 204.323 376.452 203.793 376.299 203.213 L 376.299 205.983 L 373.219 205.983 L 373.219 184.703 L 376.579 184.703 L 376.579 192.043 L 376.299 194.443 C 376.439 193.85 376.729 193.343 377.169 192.923 C 377.602 192.503 378.102 192.19 378.669 191.983 C 379.235 191.776 379.799 191.673 380.359 191.673 C 382.099 191.673 383.412 192.286 384.299 193.513 C 385.185 194.74 385.629 196.553 385.629 198.953 C 385.629 200.566 385.382 201.933 384.889 203.053 C 384.402 204.166 383.739 205 382.899 205.553 C 382.059 206.1 381.112 206.373 380.059 206.373 Z M 379.239 203.603 C 379.725 203.603 380.175 203.443 380.589 203.123 C 380.995 202.81 381.325 202.303 381.579 201.603 C 381.832 200.91 381.959 200.026 381.959 198.953 C 381.959 197.953 381.839 197.123 381.599 196.463 C 381.365 195.803 381.045 195.316 380.639 195.003 C 380.239 194.69 379.792 194.533 379.299 194.533 C 378.739 194.533 378.259 194.733 377.859 195.133 C 377.459 195.533 377.155 196.086 376.949 196.793 C 376.742 197.5 376.639 198.296 376.639 199.183 C 376.639 200.056 376.745 200.826 376.959 201.493 C 377.165 202.16 377.465 202.68 377.859 203.053 C 378.252 203.42 378.712 203.603 379.239 203.603 ZM 394.45 206.263 C 393.083 206.263 391.92 205.973 390.96 205.393 C 390 204.813 389.267 203.98 388.76 202.893 C 388.26 201.806 388.01 200.503 388.01 198.983 C 388.01 197.463 388.267 196.156 388.78 195.063 C 389.3 193.97 390.053 193.136 391.04 192.563 C 392.02 191.99 393.193 191.703 394.56 191.703 C 395.913 191.703 397.063 192 398.01 192.593 C 398.957 193.186 399.673 194.03 400.16 195.123 C 400.647 196.21 400.89 197.496 400.89 198.983 C 400.89 200.456 400.637 201.743 400.13 202.843 C 399.623 203.936 398.89 204.78 397.93 205.373 C 396.963 205.966 395.803 206.263 394.45 206.263 Z M 394.5 203.463 C 395.367 203.463 396.027 203.086 396.48 202.333 C 396.933 201.573 397.16 200.456 397.16 198.983 C 397.16 197.496 396.933 196.373 396.48 195.613 C 396.027 194.853 395.367 194.473 394.5 194.473 C 393.587 194.473 392.897 194.833 392.43 195.553 C 391.963 196.273 391.73 197.416 391.73 198.983 C 391.73 200.55 391.963 201.69 392.43 202.403 C 392.897 203.11 393.587 203.463 394.5 203.463 ZM 402.401 205.983 L 405.281 200.833 L 406.321 199.123 L 405.251 197.333 L 402.401 192.043 L 406.371 192.043 L 408.051 195.563 L 408.751 197.193 L 409.481 195.563 L 411.131 192.043 L 414.861 192.043 L 412.061 197.223 L 411.051 198.983 L 412.061 200.663 L 415.081 205.983 L 411.131 205.983 L 409.121 202.233 L 408.501 200.973 L 408.001 202.233 L 406.261 205.983 L 402.401 205.983 Z" transform="matrix(3.236891984939575, 0, 0, 4.257946968078613, -851.9174194335938, -709.6327514648438)" style="fill: rgb(40, 59, 82); paint-order: fill; white-space: pre;"/>
  <path style="stroke: rgb(0, 0, 0); fill: rgb(164, 255, 179); fill-rule: nonzero; stroke-linejoin: bevel; stroke-linecap: round; stroke-dashoffset: 50px; stroke-width: 11px; vector-effect: non-scaling-stroke; stroke-opacity: 0;" d="M 56.518 42.177 L 168.081 206.675 L 210.997 152.659 L 54.552 151.623 L 56.518 42.177 Z"/>
  <path style="fill-rule: nonzero; stroke-linecap: round; stroke-dashoffset: 50px; stroke-width: 11px; vector-effect: non-scaling-stroke; stroke-opacity: 0; stroke-miterlimit: 1; stroke: rgb(202, 83, 198); fill: rgb(255, 137, 253);" d="M 13.55 200.703 L 93.498 47.946 L 188.515 91.709 L 9.588 98.606 L 13.55 200.703 Z" transform="matrix(-1, 0, 0, -1, 198.103003, 248.649009)"/>
</svg>