<?xml version="1.0" standalone="no"?>
<!DOCTYPE svg PUBLIC "-//W3C//DTD SVG 20010904//EN"
 "http://www.w3.org/TR/2001/REC-SVG-20010904/DTD/svg10.dtd">
<svg version="1.0" xmlns="http://www.w3.org/2000/svg"
 width="1156.000000pt" height="1156.000000pt" viewBox="0 0 1156.000000 1156.000000"
 preserveAspectRatio="xMidYMid meet">
<metadata>
Created by potrace 1.14, written by Peter Selinger 2001-2017
</metadata>
<g transform="translate(0.000000,1156.000000) scale(0.100000,-0.100000)"
fill="#000000" stroke="none">
<path d="M1263 11549 c-8 -8 -7 -27 3 -67 8 -32 16 -66 19 -76 2 -10 9 -33 14
-50 6 -17 13 -42 15 -56 8 -37 27 -113 33 -130 4 -8 7 -19 8 -25 1 -11 5 -24
41 -155 12 -47 25 -97 28 -112 2 -15 9 -42 15 -60 9 -31 28 -102 37 -137 8
-37 86 -330 99 -376 7 -27 16 -61 19 -75 3 -14 12 -52 21 -85 9 -33 18 -67 20
-75 2 -8 4 -16 5 -17 3 -4 5 -11 15 -58 13 -56 12 -55 15 -57 1 -2 3 -10 5
-18 27 -106 44 -170 49 -178 3 -5 8 -24 11 -43 3 -19 12 -56 20 -84 8 -27 21
-77 29 -110 12 -50 90 -346 100 -380 2 -5 6 -23 10 -40 5 -16 24 -88 43 -160
19 -71 36 -137 38 -146 2 -9 13 -53 25 -96 12 -44 23 -88 25 -99 2 -10 4 -19
5 -19 1 0 3 -7 5 -15 2 -8 13 -53 25 -100 12 -47 24 -96 27 -109 2 -14 7 -29
10 -35 4 -5 10 -26 14 -45 4 -20 13 -54 19 -76 22 -83 28 -106 36 -144 3 -14
7 -28 10 -33 3 -5 7 -21 10 -36 2 -15 9 -38 14 -52 12 -35 35 -133 32 -142 -1
-5 3 -8 9 -8 5 0 8 -4 5 -8 -3 -5 3 -35 13 -68 10 -32 18 -62 19 -66 1 -5 2
-9 3 -10 0 -2 2 -10 4 -18 10 -46 15 -69 25 -105 6 -22 16 -58 21 -80 15 -56
15 -57 49 -185 17 -63 32 -122 34 -130 2 -8 10 -35 17 -60 14 -52 15 -56 22
-92 3 -15 8 -31 11 -36 3 -5 8 -22 11 -38 3 -16 14 -63 26 -104 11 -41 23 -86
26 -100 3 -14 19 -72 35 -130 16 -58 31 -115 34 -127 9 -47 14 -69 29 -123 9
-30 18 -63 21 -72 2 -10 6 -26 9 -35 17 -64 26 -101 31 -121 2 -13 12 -49 20
-80 9 -32 22 -82 30 -112 8 -30 17 -64 20 -75 3 -11 9 -36 14 -55 5 -19 20
-77 34 -127 14 -51 28 -103 30 -115 8 -36 57 -221 63 -238 4 -8 7 -23 8 -32 2
-10 3 -19 5 -20 1 -2 3 -10 5 -18 10 -48 46 -174 50 -179 7 -6 22 -8 170 -16
104 -5 157 -8 350 -20 44 -3 116 -7 160 -10 44 -2 121 -6 170 -9 50 -4 130 -8
178 -11 49 -3 92 -7 97 -10 5 -3 11 -1 15 5 4 6 12 7 18 3 7 -4 37 -9 67 -10
30 -1 91 -5 135 -8 44 -2 129 -7 189 -10 60 -2 142 -7 181 -10 39 -3 116 -7
171 -10 54 -3 131 -7 169 -10 39 -3 115 -7 170 -10 55 -3 127 -7 160 -10 73
-6 287 -17 372 -19 35 0 63 -3 63 -6 0 -3 26 -5 58 -6 48 0 223 -9 387 -19 22
-2 96 -6 165 -10 69 -4 136 -8 150 -10 14 -1 38 -3 53 -3 26 -2 27 -4 22 -44
-5 -43 -13 -130 -20 -223 -2 -27 -6 -79 -10 -115 -3 -36 -8 -90 -10 -120 -2
-30 -7 -80 -10 -110 -4 -30 -9 -80 -11 -110 -8 -98 -15 -184 -20 -240 -3 -30
-7 -73 -8 -95 -2 -22 -7 -78 -11 -125 -3 -47 -8 -98 -10 -115 -1 -16 -6 -61
-9 -100 -4 -38 -8 -90 -11 -115 -2 -25 -7 -79 -10 -120 -3 -41 -8 -102 -12
-135 -3 -33 -6 -78 -7 -100 -1 -22 -4 -45 -7 -50 -3 -6 -5 -34 -4 -62 0 -29
-2 -53 -5 -53 -3 0 -5 -17 -6 -38 0 -36 -12 -188 -19 -241 -2 -14 -6 -62 -9
-106 -4 -44 -9 -109 -12 -145 -8 -84 -11 -116 -28 -328 -3 -37 -8 -92 -11
-122 -3 -30 -8 -80 -10 -110 -3 -30 -7 -77 -10 -105 -3 -27 -8 -75 -10 -105
-2 -30 -6 -82 -10 -115 -3 -33 -8 -89 -11 -125 -11 -151 -15 -205 -30 -346 -5
-42 -2 -52 11 -58 18 -7 35 0 35 14 0 5 14 39 30 75 17 36 30 67 30 70 0 2 16
38 35 79 19 42 35 78 35 80 0 3 16 39 35 80 19 42 35 78 35 81 0 2 11 28 24
57 50 109 75 166 121 273 26 61 60 138 76 173 16 35 29 65 29 67 0 3 12 30 26
62 15 32 42 94 62 138 19 44 41 96 50 115 9 19 16 37 17 40 3 11 34 82 90 205
22 48 77 176 80 185 4 12 25 60 59 134 20 43 36 83 36 89 0 6 7 18 16 28 8 9
16 26 17 38 1 11 5 21 9 21 4 0 7 3 6 8 -2 8 11 38 51 124 16 35 30 66 31 70
0 4 15 38 32 75 60 134 75 170 123 283 27 63 52 117 55 120 3 3 6 11 7 17 2 7
19 47 38 89 19 41 35 77 35 79 0 4 28 69 72 165 19 41 39 88 43 100 1 3 9 21
18 40 8 19 33 77 55 128 46 105 52 92 -63 137 -72 28 -91 36 -185 74 -30 13
-61 23 -67 24 -7 0 -13 5 -13 10 0 6 -3 7 -6 4 -4 -3 -16 -1 -28 5 -11 7 -26
13 -31 14 -11 2 -91 34 -152 60 -17 8 -34 14 -38 14 -4 0 -33 11 -64 24 -31
13 -139 57 -241 96 -216 84 -300 120 -300 129 0 4 -12 20 -27 38 -35 39 -43
49 -128 158 -38 50 -72 92 -75 95 -3 3 -19 23 -36 45 -16 22 -34 45 -40 50 -6
6 -24 28 -40 50 -16 22 -31 42 -35 45 -5 4 -103 129 -228 289 -14 19 -31 39
-36 45 -6 6 -26 31 -45 56 -19 25 -38 47 -42 48 -5 2 -8 7 -8 12 0 4 -16 25
-35 46 -19 21 -35 43 -35 50 0 7 -4 14 -9 16 -9 3 -92 106 -250 308 -36 45
-70 87 -76 94 -6 6 -21 25 -33 43 -13 18 -32 42 -42 55 -20 23 -139 172 -195
244 -16 21 -42 53 -57 70 -16 17 -28 35 -28 39 0 4 -8 15 -18 24 -10 9 -42 48
-72 86 -29 39 -57 72 -62 73 -4 2 -8 10 -8 17 0 7 -3 15 -8 17 -4 2 -23 23
-42 48 -19 25 -45 56 -57 70 -13 14 -23 28 -23 32 0 3 -16 23 -35 42 -19 20
-35 40 -35 44 0 4 -13 21 -28 37 -15 17 -58 71 -96 120 -38 50 -74 95 -80 100
-7 6 -23 26 -36 45 -24 34 -45 61 -65 84 -6 6 -35 42 -65 81 -30 38 -60 77
-67 85 -7 8 -40 51 -75 95 -34 44 -65 82 -68 85 -4 3 -37 46 -75 95 -37 50
-75 98 -84 107 -9 9 -20 23 -26 30 -57 76 -112 145 -122 156 -7 7 -27 33 -44
57 -18 25 -36 45 -41 45 -4 0 -8 6 -8 14 0 8 -4 16 -8 18 -5 2 -42 46 -83 98
-81 104 -99 126 -114 144 -5 6 -23 29 -39 51 -17 22 -33 42 -36 45 -6 5 -106
132 -148 187 -12 16 -33 43 -46 59 -43 53 -311 391 -334 421 -12 16 -33 43
-46 59 -35 43 -139 175 -248 313 -37 47 -75 95 -85 106 -10 11 -31 38 -48 60
-16 22 -34 45 -40 51 -5 6 -21 26 -35 44 -75 99 -194 245 -201 248 -5 2 -9 10
-9 17 0 7 -4 15 -8 17 -5 2 -66 77 -137 168 -71 91 -132 167 -135 170 -6 5
-107 133 -150 190 -14 18 -32 41 -40 51 -8 10 -25 31 -37 46 -12 15 -30 38
-40 50 -29 35 -46 56 -78 98 -16 22 -35 46 -42 53 -7 7 -27 33 -44 57 -18 25
-36 45 -41 45 -4 0 -8 6 -8 14 0 8 -4 16 -8 18 -5 2 -42 46 -82 98 -41 52 -78
97 -82 98 -5 2 -8 8 -8 12 0 8 -47 60 -53 60 -2 0 -8 -5 -14 -11z"/>
<path d="M10252 10294 c-15 -26 -33 -52 -39 -59 -7 -8 -13 -19 -13 -25 0 -6
-7 -13 -15 -16 -8 -4 -15 -11 -15 -16 0 -12 -92 -152 -102 -156 -5 -2 -8 -8
-8 -13 0 -8 -128 -204 -389 -599 -42 -63 -79 -122 -83 -132 -4 -10 -12 -18
-18 -18 -6 0 -8 -4 -5 -10 3 -5 1 -10 -4 -10 -6 0 -11 -4 -11 -9 0 -8 -88
-146 -118 -186 -4 -5 -50 -75 -102 -155 -52 -80 -98 -146 -102 -148 -4 -2 -8
-8 -8 -14 0 -6 -16 -33 -35 -59 -19 -27 -35 -51 -35 -54 0 -8 -64 -100 -72
-103 -5 -2 -8 -8 -8 -13 0 -5 -25 -46 -55 -91 -31 -46 -60 -90 -65 -98 -6 -8
-35 -52 -65 -98 -30 -46 -55 -87 -55 -92 0 -6 -3 -10 -7 -10 -5 0 -35 -43 -68
-96 -33 -53 -66 -102 -72 -109 -7 -8 -13 -16 -13 -18 0 -6 -164 -256 -180
-274 -5 -7 -10 -14 -10 -17 0 -2 -31 -51 -69 -108 -154 -233 -306 -464 -317
-485 -7 -12 -17 -28 -23 -35 -22 -25 -101 -150 -101 -158 0 -5 -3 -10 -7 -12
-10 -4 -73 -96 -73 -106 0 -4 -13 -22 -29 -41 -17 -19 -28 -38 -25 -42 2 -4 1
-9 -3 -11 -11 -4 -73 -97 -73 -107 0 -5 -3 -11 -7 -13 -5 -1 -37 -48 -73 -103
-36 -55 -68 -101 -72 -103 -5 -2 -8 -10 -8 -18 0 -8 -4 -14 -10 -14 -5 0 -10
-5 -10 -11 0 -6 -25 -47 -55 -91 -30 -44 -55 -81 -55 -83 0 -2 -20 -33 -45
-68 -25 -36 -45 -70 -45 -76 0 -6 -4 -11 -8 -11 -5 0 -15 -12 -23 -27 -8 -16
-16 -30 -19 -33 -10 -10 -70 -101 -70 -106 0 -3 -8 -16 -17 -29 -20 -25 -23
-29 -85 -125 -24 -36 -47 -68 -53 -72 -5 -4 -6 -8 -1 -8 5 0 0 -10 -10 -22
-11 -13 -36 -48 -54 -78 -18 -30 -43 -65 -54 -77 -10 -13 -15 -23 -10 -23 5 0
4 -4 -1 -8 -6 -4 -29 -36 -53 -72 -58 -89 -65 -99 -82 -124 -9 -11 -22 -33
-29 -48 -8 -16 -18 -28 -23 -28 -4 0 -8 -7 -8 -15 0 -8 -4 -15 -10 -15 -5 0
-10 -5 -10 -10 0 -6 -25 -47 -55 -92 -30 -45 -53 -83 -50 -86 2 -3 21 4 42 14
21 10 43 19 48 20 6 1 40 16 77 33 66 30 131 58 146 62 7 2 67 29 190 85 29
13 54 24 56 24 2 0 30 12 62 27 33 15 61 28 64 28 3 1 21 8 40 17 19 9 73 32
119 52 47 20 99 43 115 51 17 7 69 30 116 50 106 46 134 58 190 83 25 11 79
34 120 52 41 18 98 43 127 56 28 13 59 24 67 24 9 0 16 5 16 10 0 6 5 10 11
10 6 0 40 14 76 30 35 17 67 30 69 30 3 0 31 12 62 27 31 14 62 26 69 26 7 0
13 4 13 8 0 3 10 10 23 14 12 4 24 8 27 9 3 1 27 12 54 24 27 12 50 22 52 22
2 0 34 14 71 32 38 17 77 33 88 35 11 2 22 8 23 13 2 6 8 10 13 10 6 0 182 75
392 166 210 92 398 173 417 182 19 8 47 21 62 28 14 8 33 14 42 14 9 0 16 5
16 10 0 6 7 10 15 10 9 0 37 11 63 25 37 20 47 31 49 52 1 16 4 53 7 83 6 64
12 133 22 245 3 44 8 94 10 110 1 17 5 59 8 95 3 36 8 88 11 115 5 47 13 141
20 230 1 22 5 67 9 100 6 65 12 127 21 249 4 44 9 89 11 100 2 12 7 57 10 101
3 44 7 96 9 115 2 19 7 73 10 120 9 113 13 155 15 155 1 0 3 27 5 60 1 33 6
85 9 115 4 30 9 80 11 110 2 30 6 78 9 105 4 44 13 134 21 230 1 17 6 64 9
105 4 41 9 102 12 135 10 120 15 180 29 330 3 28 7 75 10 105 3 30 7 75 9 100
6 55 15 153 22 240 3 36 7 85 9 110 3 25 7 77 11 115 3 39 7 88 9 110 24 251
25 269 12 277 -21 13 -27 9 -55 -38z"/>
<path d="M6450 4719 c-107 -30 -283 -77 -310 -84 -8 -2 -27 -8 -42 -14 -16 -6
-28 -8 -28 -5 0 4 -7 1 -15 -6 -8 -7 -15 -10 -15 -7 0 3 -21 0 -47 -8 -27 -8
-73 -21 -103 -29 -30 -8 -107 -29 -170 -46 -63 -17 -122 -33 -130 -35 -8 -2
-64 -18 -125 -35 -60 -17 -118 -33 -127 -35 -23 -6 -35 -9 -133 -36 -44 -11
-87 -23 -95 -24 -8 -2 -15 -4 -15 -5 0 -1 -7 -3 -15 -5 -57 -14 -137 -37 -150
-42 -8 -3 -18 -5 -22 -5 -4 1 -27 -5 -50 -12 -46 -16 -153 -46 -178 -50 -8 -2
-22 -6 -30 -9 -14 -5 -203 -56 -225 -61 -5 -1 -16 -5 -22 -9 -7 -5 -13 -6 -13
-3 0 3 -24 -2 -52 -11 -29 -8 -57 -16 -63 -18 -5 -1 -17 -4 -25 -7 -33 -12
-136 -40 -150 -40 -8 0 -21 -5 -27 -11 -7 -5 -13 -7 -13 -3 0 3 -16 0 -35 -8
-19 -8 -35 -13 -35 -11 0 2 -24 -3 -52 -12 -29 -8 -60 -17 -68 -18 -8 -2 -15
-4 -15 -5 0 -1 -7 -3 -15 -5 -8 -1 -35 -8 -60 -16 -25 -7 -49 -13 -55 -15 -5
-1 -103 -27 -218 -59 -114 -31 -213 -58 -220 -59 -6 -1 -16 -4 -22 -7 -11 -7
-57 -19 -90 -25 -11 -2 -51 -13 -90 -24 -38 -11 -113 -32 -165 -46 -119 -31
-111 -29 -195 -53 -233 -65 -334 -92 -352 -93 -7 -1 -13 -5 -13 -10 0 -5 -4
-7 -9 -3 -5 3 -29 -1 -53 -9 -24 -7 -56 -17 -73 -21 -16 -5 -37 -10 -45 -12
-8 -3 -22 -6 -30 -7 -14 -3 -25 -6 -67 -23 -10 -3 -25 -5 -34 -4 -14 1 -15
-23 -12 -226 2 -125 4 -252 6 -280 1 -30 -2 -53 -8 -53 -7 0 -7 -3 0 -8 6 -4
11 -89 12 -212 3 -377 22 -1705 29 -2005 2 -121 4 -224 4 -230 1 -5 -1 -25 -3
-43 -2 -18 0 -35 5 -38 5 -3 5 -10 2 -16 -4 -6 -6 -29 -5 -52 0 -22 2 -101 3
-174 l2 -133 90 94 c50 52 156 163 236 247 80 84 170 178 200 209 30 31 132
137 225 236 94 98 205 214 248 258 42 44 77 81 77 82 0 1 37 40 83 87 45 47
152 158 237 248 85 89 187 195 225 236 39 40 122 127 185 194 63 66 160 168
215 225 55 57 159 166 230 241 72 76 155 163 185 194 30 31 129 135 220 230
91 95 188 197 215 225 28 29 118 123 200 210 83 86 177 185 210 220 263 274
687 719 842 881 58 62 354 372 362 380 8 7 -13 3 -119 -27z"/>
</g>
</svg>
