<?xml version="1.0" standalone="no"?>
<!DOCTYPE svg PUBLIC "-//W3C//DTD SVG 20010904//EN"
 "http://www.w3.org/TR/2001/REC-SVG-20010904/DTD/svg10.dtd">
<svg version="1.0" xmlns="http://www.w3.org/2000/svg"
 width="646.000000pt" height="646.000000pt" viewBox="0 0 646.000000 646.000000"
 preserveAspectRatio="xMidYMid meet">
<metadata>
Created by potrace 1.14, written by Peter Selinger 2001-2017
</metadata>
<g transform="translate(0.000000,646.000000) scale(0.100000,-0.100000)"
fill="#000000" stroke="none">
<path d="M856 6183 c3 -16 11 -46 16 -68 6 -22 10 -40 9 -40 0 0 11 -38 25
-85 14 -47 27 -94 28 -105 3 -22 35 -141 43 -165 4 -8 8 -23 9 -32 4 -19 53
-206 110 -423 19 -71 36 -137 39 -145 11 -47 111 -428 146 -560 22 -85 43
-163 45 -172 4 -18 10 -40 18 -75 3 -10 14 -50 25 -88 11 -39 22 -81 25 -95 3
-14 23 -92 45 -175 22 -82 56 -213 76 -290 20 -77 45 -174 57 -215 11 -41 21
-83 23 -92 2 -9 13 -50 24 -90 11 -40 34 -127 51 -193 16 -65 35 -124 40 -129
5 -5 29 -11 52 -12 46 -1 230 -12 338 -19 60 -3 201 -11 360 -20 36 -2 106 -6
155 -10 50 -3 131 -8 180 -10 50 -3 133 -8 185 -11 52 -3 118 -7 145 -9 28 -1
115 -6 195 -10 80 -5 160 -9 177 -9 18 -1 33 -5 33 -9 0 -5 4 -6 10 -2 5 3
-46 74 -113 159 -67 84 -133 168 -147 186 -14 18 -30 38 -36 44 -6 6 -26 32
-46 57 -19 26 -40 53 -47 60 -6 8 -52 66 -102 129 -49 63 -95 122 -102 130
-14 17 -102 127 -120 150 -7 8 -35 44 -62 80 -28 36 -52 67 -55 70 -5 4 -79
97 -108 135 -4 6 -28 35 -52 66 -25 30 -56 71 -70 89 -14 18 -30 38 -35 44 -6
6 -26 31 -45 56 -19 25 -38 47 -42 48 -5 2 -8 8 -8 13 0 5 -8 17 -17 27 -10
10 -54 65 -98 121 -44 57 -85 109 -90 115 -6 6 -26 31 -46 56 -43 56 -190 241
-204 257 -13 16 -23 29 -65 83 -19 25 -39 50 -45 56 -5 7 -19 24 -29 39 -11
14 -27 35 -36 45 -9 10 -25 31 -36 46 -10 14 -26 34 -35 43 -8 9 -30 36 -49
61 -19 25 -37 47 -40 50 -3 3 -19 23 -35 45 -16 22 -37 49 -47 60 -9 11 -56
70 -103 130 -48 61 -97 122 -108 137 -12 14 -35 43 -52 64 -16 21 -91 115
-166 209 -75 94 -144 183 -154 198 -24 37 -47 36 -39 0z"/>
<path d="M5224 5388 c-81 -123 -178 -270 -215 -327 -38 -57 -69 -107 -69 -111
0 -5 -3 -10 -8 -12 -4 -1 -23 -28 -42 -58 -19 -30 -38 -59 -43 -65 -4 -5 -30
-44 -56 -85 -27 -41 -99 -151 -160 -244 -61 -92 -111 -172 -111 -177 0 -5 -4
-9 -10 -9 -5 0 -10 -6 -10 -14 0 -8 -3 -16 -8 -18 -4 -1 -45 -61 -92 -133 -46
-71 -161 -247 -255 -390 -94 -143 -203 -309 -243 -370 -39 -60 -76 -117 -82
-125 -6 -8 -57 -87 -115 -175 -57 -88 -116 -176 -130 -195 -14 -19 -22 -36
-17 -38 4 -1 71 25 148 59 141 62 185 81 194 84 11 4 58 24 100 43 150 68 182
82 186 82 7 0 112 48 147 66 15 8 27 12 27 8 0 -3 6 -2 13 4 6 5 77 38 157 72
80 34 151 67 158 73 6 5 12 7 12 3 0 -3 17 3 38 13 20 11 82 38 137 61 55 24
118 50 140 60 170 76 191 88 191 106 1 34 15 198 19 229 2 17 7 64 10 105 3
41 8 91 10 110 7 74 18 196 20 230 1 19 5 67 9 105 7 77 13 139 21 230 3 33 8
85 11 115 2 30 7 78 9 105 2 28 4 50 5 50 1 0 3 23 5 50 2 28 6 84 10 125 12
124 12 132 19 220 4 47 9 99 11 115 2 17 6 66 10 110 4 44 9 90 10 103 1 12
-1 25 -6 28 -5 3 -74 -95 -155 -218z"/>
<path d="M3547 2823 c-3 -5 -9 -47 -12 -93 -4 -47 -8 -103 -10 -125 -5 -55
-14 -159 -20 -225 -3 -30 -8 -78 -10 -106 -9 -118 -16 -178 -22 -187 -4 -6 -1
-7 7 -2 8 5 11 4 7 -2 -9 -14 -15 -57 -22 -148 -3 -44 -7 -98 -10 -120 -3 -22
-7 -74 -11 -115 -3 -41 -7 -91 -9 -110 -1 -19 -6 -71 -9 -115 -4 -44 -9 -96
-11 -115 -3 -19 -7 -69 -11 -110 -3 -41 -7 -91 -9 -110 -24 -275 -24 -292 -5
-298 8 -3 12 -2 8 2 -3 4 16 58 44 119 73 164 73 163 126 288 28 63 60 137 73
164 12 28 23 52 24 55 5 16 121 279 166 378 16 35 29 65 29 67 0 2 13 32 29
67 16 35 54 122 84 194 31 72 70 162 87 200 18 38 38 85 46 104 9 19 24 52 34
72 l19 38 -46 20 c-25 11 -50 20 -54 20 -5 0 -17 4 -27 9 -9 5 -35 16 -57 25
-71 28 -100 39 -105 41 -3 1 -18 7 -35 14 -16 7 -82 33 -145 58 -63 25 -120
47 -126 50 -7 2 -14 1 -17 -4z"/>
<path d="M3428 2801 c-32 -11 -58 -17 -58 -14 0 3 -7 0 -15 -7 -8 -7 -15 -10
-15 -6 0 3 -12 1 -27 -5 -16 -6 -39 -13 -53 -16 -14 -2 -63 -15 -110 -29 -47
-13 -92 -26 -100 -28 -8 -2 -51 -14 -95 -26 -44 -12 -96 -26 -115 -31 -19 -5
-43 -12 -52 -14 -10 -3 -28 -8 -40 -11 -13 -3 -27 -6 -33 -8 -5 -1 -37 -10
-70 -20 -33 -10 -67 -20 -75 -21 -8 -2 -82 -22 -165 -45 -82 -23 -157 -43
-165 -45 -8 -2 -15 -4 -15 -5 0 -2 -12 -5 -50 -13 -11 -3 -40 -10 -65 -17 -25
-7 -52 -14 -60 -15 -8 -2 -44 -12 -80 -23 -36 -11 -90 -26 -120 -32 -30 -7
-62 -16 -71 -21 -9 -4 -29 -11 -45 -13 -23 -5 -419 -111 -486 -132 -15 -4 -16
-28 -13 -252 10 -718 17 -1233 19 -1364 0 -82 2 -148 4 -148 3 0 57 55 252
260 91 95 194 203 230 241 93 97 346 362 403 423 51 54 347 363 432 451 28 29
122 128 210 220 243 255 249 261 421 441 344 359 331 344 302 343 -13 0 -49
-8 -80 -18z"/>
</g>
</svg>
